<svg width="64" height="64" viewBox="0 0 64 64" fill="none" xmlns="http://www.w3.org/2000/svg">
<circle cx="32.3257" cy="32.2888" r="31.4861" fill="#F4F7FE"/>
<path d="M23.6488 28.1431H23.9565C25.1414 28.1431 26.1108 29.1126 26.1108 30.2974V41.0688C26.1108 42.2537 25.1414 43.2231 23.9565 43.2231H23.6488C22.4639 43.2231 21.4945 42.2537 21.4945 41.0688V30.2974C21.4945 29.1126 22.4639 28.1431 23.6488 28.1431V28.1431ZM32.2659 21.6803C33.4508 21.6803 34.4202 22.6497 34.4202 23.8346V41.0688C34.4202 42.2537 33.4508 43.2231 32.2659 43.2231C31.0811 43.2231 30.1116 42.2537 30.1116 41.0688V23.8346C30.1116 22.6497 31.0811 21.6803 32.2659 21.6803ZM40.883 33.9905C42.0679 33.9905 43.0373 34.9599 43.0373 36.1448V41.0688C43.0373 42.2537 42.0679 43.2231 40.883 43.2231C39.6982 43.2231 38.7288 42.2537 38.7288 41.0688V36.1448C38.7288 34.9599 39.6982 33.9905 40.883 33.9905V33.9905Z" fill="#88ADD9"/>
</svg>
