<svg width="188" height="48" viewBox="0 0 188 48" fill="none" xmlns="http://www.w3.org/2000/svg">
<path d="M46.7435 23.8561C46.7435 36.7626 36.2807 47.2254 23.3742 47.2254C10.4677 47.2254 0.00492237 36.7626 0.00492237 23.8561C0.00492237 10.9496 10.4677 0.486816 23.3742 0.486816C36.2807 0.486816 46.7435 10.9496 46.7435 23.8561Z" fill="white"/>
<path fill-rule="evenodd" clip-rule="evenodd" d="M23.7353 47.4707C36.844 47.4707 47.4707 36.844 47.4707 23.7353C47.4707 10.6267 36.844 0 23.7353 0C10.6267 0 0 10.6267 0 23.7353C0 29.6948 2.19629 35.1412 5.82359 39.3094L22.9433 29.5267C23.1751 29.3943 23.7577 29.1493 24.2344 29.2288C24.7111 29.3082 25.0289 29.7916 25.1282 30.0233L25.8233 33.4992L36.1517 26.3488L35.6551 25.6536C35.5227 25.4219 35.3175 24.8194 35.5558 24.2632C35.7942 23.7071 36.3834 23.5019 36.6482 23.4688L41.2166 23.3694C41.4483 23.3694 41.9912 23.4886 42.309 23.9653C42.6268 24.442 42.64 24.9584 42.6069 25.157L41.0179 29.3281C40.9186 29.5598 40.581 30.0431 40.0248 30.1226C39.4687 30.202 38.8662 29.8247 38.6345 29.626L37.9393 28.7322L25.4261 37.3723C25.1613 37.5047 24.5124 37.71 24.0357 37.4716C23.5591 37.2333 23.3075 36.7102 23.2413 36.4785L22.6454 33.0026L7.99664 41.5025C12.1856 45.2159 17.6971 47.4707 23.7353 47.4707ZM32.4208 14.8735C33.8729 14.3477 34.9105 12.9565 34.9105 11.3229C34.9105 9.23798 33.2204 7.54782 31.1355 7.54782C29.0505 7.54782 27.3604 9.23798 27.3604 11.3229C27.3604 12.9813 28.4298 14.39 29.9166 14.8969C29.4827 15.1522 29.0222 15.4417 28.5845 15.7473C28.1232 16.0694 27.6856 16.4105 27.3307 16.7492C26.9774 17.0865 26.6995 17.4276 26.5665 17.7507C26.4348 18.0705 26.3582 18.5558 26.3181 19.1229C26.2939 19.4657 26.2828 19.8417 26.2819 20.2345C26.1645 20.0918 26.0283 19.9482 25.8785 19.8052C25.5237 19.4665 25.086 19.1254 24.6247 18.8033C24.1736 18.4884 23.6983 18.1904 23.2528 17.9295C24.7049 17.4037 25.7425 16.0125 25.7425 14.3789C25.7425 12.294 24.0523 10.6038 21.9674 10.6038C19.8825 10.6038 18.1923 12.294 18.1923 14.3789C18.1923 16.0373 19.2617 17.446 20.7486 17.9529C20.3147 18.2082 19.8542 18.4977 19.4165 18.8033C18.9552 19.1254 18.5175 19.4665 18.1627 19.8052C17.8094 20.1425 17.5315 20.4836 17.3984 20.8067C17.2668 21.1265 17.1901 21.6118 17.1501 22.1789C17.1098 22.7486 17.1059 23.4102 17.1243 24.0882C17.1288 24.2524 17.1345 24.4176 17.1414 24.5829C17.018 24.429 16.8721 24.2739 16.7105 24.1196C16.3557 23.7809 15.918 23.4398 15.4567 23.1177C15.0056 22.8028 14.5302 22.5048 14.0848 22.2439C15.5369 21.7181 16.5745 20.3269 16.5745 18.6933C16.5745 16.6084 14.8843 14.9182 12.7994 14.9182C10.7145 14.9182 9.02431 16.6084 9.02431 18.6933C9.02431 20.3517 10.0937 21.7604 11.5805 22.2673C11.1467 22.5226 10.6862 22.8121 10.2485 23.1177C9.78717 23.4398 9.3495 23.7809 8.99468 24.1196C8.64135 24.4569 8.36345 24.798 8.23041 25.1211C8.09873 25.4409 8.0221 25.9262 7.98202 26.4933C7.94176 27.063 7.93788 27.7246 7.95627 28.4026C7.97219 28.9892 7.95466 29.5892 7.93816 30.1541V30.1541C7.91652 30.895 7.89664 31.5757 7.95627 32.0868V33.5144L24.1725 23.9672C24.5958 23.718 25.1146 23.6934 25.5595 23.9015C26.0044 24.1096 26.3181 24.5236 26.3981 25.0082L27.0132 28.0059L27.9834 27.3975L33.8456 23.2929L33.3076 22.4548C33.0133 21.9964 32.9927 21.4139 33.2539 20.9358C33.5151 20.4577 34.0164 20.1604 34.5612 20.1604H36.0951C36.093 19.7944 36.0819 19.4441 36.0592 19.1229C36.0191 18.5558 35.9425 18.0705 35.8108 17.7507C35.6778 17.4276 35.3999 17.0865 35.0465 16.7492C34.6917 16.4105 34.2541 16.0694 33.7927 15.7473C33.3416 15.4324 32.8663 15.1344 32.4208 14.8735Z" fill="#2ED9C3"/>
<path fill-rule="evenodd" clip-rule="evenodd" d="M23.7353 47.4707C36.844 47.4707 47.4707 36.844 47.4707 23.7353C47.4707 10.6267 36.844 0 23.7353 0C10.6267 0 0 10.6267 0 23.7353C0 29.6948 2.19629 35.1412 5.82359 39.3094L22.9433 29.5267C23.1751 29.3943 23.7577 29.1493 24.2344 29.2288C24.7111 29.3082 25.0289 29.7916 25.1282 30.0233L25.8233 33.4992L36.1517 26.3488L35.6551 25.6536C35.5227 25.4219 35.3175 24.8194 35.5558 24.2632C35.7942 23.7071 36.3834 23.5019 36.6482 23.4688L41.2166 23.3694C41.4483 23.3694 41.9912 23.4886 42.309 23.9653C42.6268 24.442 42.64 24.9584 42.6069 25.157L41.0179 29.3281C40.9186 29.5598 40.581 30.0431 40.0248 30.1226C39.4687 30.202 38.8662 29.8247 38.6345 29.626L37.9393 28.7322L25.4261 37.3723C25.1613 37.5047 24.5124 37.71 24.0357 37.4716C23.5591 37.2333 23.3075 36.7102 23.2413 36.4785L22.6454 33.0026L7.99664 41.5025C12.1856 45.2159 17.6971 47.4707 23.7353 47.4707ZM32.4208 14.8735C33.8729 14.3477 34.9105 12.9565 34.9105 11.3229C34.9105 9.23798 33.2204 7.54782 31.1355 7.54782C29.0505 7.54782 27.3604 9.23798 27.3604 11.3229C27.3604 12.9813 28.4298 14.39 29.9166 14.8969C29.4827 15.1522 29.0222 15.4417 28.5845 15.7473C28.1232 16.0694 27.6856 16.4105 27.3307 16.7492C26.9774 17.0865 26.6995 17.4276 26.5665 17.7507C26.4348 18.0705 26.3582 18.5558 26.3181 19.1229C26.2939 19.4657 26.2828 19.8417 26.2819 20.2345C26.1645 20.0918 26.0283 19.9482 25.8785 19.8052C25.5237 19.4665 25.086 19.1254 24.6247 18.8033C24.1736 18.4884 23.6983 18.1904 23.2528 17.9295C24.7049 17.4037 25.7425 16.0125 25.7425 14.3789C25.7425 12.294 24.0523 10.6038 21.9674 10.6038C19.8825 10.6038 18.1923 12.294 18.1923 14.3789C18.1923 16.0373 19.2617 17.446 20.7486 17.9529C20.3147 18.2082 19.8542 18.4977 19.4165 18.8033C18.9552 19.1254 18.5175 19.4665 18.1627 19.8052C17.8094 20.1425 17.5315 20.4836 17.3984 20.8067C17.2668 21.1265 17.1901 21.6118 17.1501 22.1789C17.1098 22.7486 17.1059 23.4102 17.1243 24.0882C17.1288 24.2524 17.1345 24.4176 17.1414 24.5829C17.018 24.429 16.8721 24.2739 16.7105 24.1196C16.3557 23.7809 15.918 23.4398 15.4567 23.1177C15.0056 22.8028 14.5302 22.5048 14.0848 22.2439C15.5369 21.7181 16.5745 20.3269 16.5745 18.6933C16.5745 16.6084 14.8843 14.9182 12.7994 14.9182C10.7145 14.9182 9.02431 16.6084 9.02431 18.6933C9.02431 20.3517 10.0937 21.7604 11.5805 22.2673C11.1467 22.5226 10.6862 22.8121 10.2485 23.1177C9.78717 23.4398 9.3495 23.7809 8.99468 24.1196C8.64135 24.4569 8.36345 24.798 8.23041 25.1211C8.09873 25.4409 8.0221 25.9262 7.98202 26.4933C7.94176 27.063 7.93788 27.7246 7.95627 28.4026C7.97219 28.9892 7.95466 29.5892 7.93816 30.1541V30.1541C7.91652 30.895 7.89664 31.5757 7.95627 32.0868V33.5144L24.1725 23.9672C24.5958 23.718 25.1146 23.6934 25.5595 23.9015C26.0044 24.1096 26.3181 24.5236 26.3981 25.0082L27.0132 28.0059L27.9834 27.3975L33.8456 23.2929L33.3076 22.4548C33.0133 21.9964 32.9927 21.4139 33.2539 20.9358C33.5151 20.4577 34.0164 20.1604 34.5612 20.1604H36.0951C36.093 19.7944 36.0819 19.4441 36.0592 19.1229C36.0191 18.5558 35.9425 18.0705 35.8108 17.7507C35.6778 17.4276 35.3999 17.0865 35.0465 16.7492C34.6917 16.4105 34.2541 16.0694 33.7927 15.7473C33.3416 15.4324 32.8663 15.1344 32.4208 14.8735Z" fill="url(#paint0_linear_379_803)"/>
<path d="M80.989 20.9454H84.0639V28.4618H80.989V20.9454Z" fill="#2C2C2C"/>
<path d="M90.8972 20.9454H93.9721V28.4618H90.8972V20.9454Z" fill="#2C2C2C"/>
<path d="M80.9914 28.4374C80.9902 28.5022 80.9894 28.5673 80.9894 28.6325C80.9894 32.878 83.8959 36.3197 87.4809 36.3197C91.0659 36.3197 93.9724 32.878 93.9724 28.6325C93.9724 28.5673 93.9716 28.5022 93.9704 28.4374H90.8947C90.8967 28.5021 90.8979 28.5672 90.8979 28.6326C90.8979 31.1799 89.3682 33.2449 87.4813 33.2449C85.5945 33.2449 84.0647 31.1799 84.0647 28.6326C84.0647 28.5672 84.0659 28.5021 84.068 28.4374H80.9914Z" fill="#2C2C2C"/>
<path d="M58.433 36.3177H61.8383L68.5485 17.2524L75.4288 36.3177H78.834L68.5485 8.73389L58.433 36.3177Z" fill="#2C2C2C"/>
<path d="M63.4615 29.9965V26.9795H73.5182V29.9965H63.4615Z" fill="#2C2C2C"/>
<path d="M106.504 13.9058H109.579L109.541 29.1763H106.466L106.504 13.9058Z" fill="#2C2C2C"/>
<path fill-rule="evenodd" clip-rule="evenodd" d="M103.049 36.3512C106.634 36.3512 109.54 32.9095 109.54 28.664C109.54 24.4185 106.634 20.9768 103.049 20.9768C99.4638 20.9768 96.5577 24.4185 96.5577 28.664C96.5577 32.9095 99.4638 36.3512 103.049 36.3512ZM103.049 33.2764C104.936 33.2764 106.465 31.2114 106.465 28.6641C106.465 26.1168 104.936 24.0517 103.049 24.0517C101.162 24.0517 99.6326 26.1168 99.6326 28.6641C99.6326 31.2114 101.162 33.2764 103.049 33.2764Z" fill="#2C2C2C"/>
<path d="M118.055 32.5618L120.86 33.8204L126.596 21.0586H123.216L118.055 32.5618Z" fill="#2C2C2C"/>
<path d="M120.553 32.5225L117.748 33.781L111.733 21.0192L115.392 21.0192L120.553 32.5225Z" fill="#2C2C2C"/>
<path d="M118.497 30.7933C118.49 30.8307 118.483 30.8682 118.475 30.9057C117.923 33.6057 116.117 35.5433 114.352 35.4046V38.7345C117.583 38.8381 120.73 35.7481 121.633 31.4031L118.497 30.7933Z" fill="#2C2C2C"/>
<path d="M128.751 13.9058H131.826L131.827 28.7004L128.751 28.4931V13.9058Z" fill="#2C2C2C"/>
<path d="M135.727 18.2158V21.2328H128.831V18.2158H135.727Z" fill="#2C2C2C"/>
<path d="M131.598 26.6117C131.576 26.8184 131.827 28.4498 131.827 28.6642C131.827 31.2116 133.356 33.2766 135.243 33.2766C135.383 33.2766 135.52 33.2653 135.655 33.2434V36.3362C135.519 36.3464 135.381 36.3515 135.243 36.3515C131.658 36.3515 128.751 32.9098 128.751 28.6643C128.751 28.4513 128.759 28.2405 128.773 28.0319L131.598 26.6117Z" fill="#2C2C2C"/>
<path fill-rule="evenodd" clip-rule="evenodd" d="M144.374 36.3199C147.959 36.3199 150.865 32.8782 150.865 28.6327C150.865 24.3871 147.959 20.9454 144.374 20.9454C140.789 20.9454 137.882 24.3871 137.882 28.6327C137.882 32.8782 140.789 36.3199 144.374 36.3199ZM144.374 33.245C146.261 33.245 147.79 31.18 147.79 28.6327C147.79 26.0853 146.261 24.0203 144.374 24.0203C142.487 24.0203 140.957 26.0853 140.957 28.6327C140.957 31.18 142.487 33.245 144.374 33.245Z" fill="#2C2C2C"/>
<path d="M153.451 20.9225H156.526V36.2969H153.451V20.9225Z" fill="#2C2C2C"/>
<path d="M159.772 20.9225L164.045 20.931L156.138 29.0756L153.964 26.9014L159.772 20.9225Z" fill="#2C2C2C"/>
<path d="M172.175 13.0182C172.175 11.0012 170.54 9.36621 168.523 9.36621C166.506 9.36621 164.871 11.0012 164.871 13.0182C164.871 15.0351 166.506 16.6701 168.523 16.6701C170.54 16.6701 172.175 15.0351 172.175 13.0182Z" fill="#2ED9C3"/>
<path d="M172.175 13.0182C172.175 11.0012 170.54 9.36621 168.523 9.36621C166.506 9.36621 164.871 11.0012 164.871 13.0182C164.871 15.0351 166.506 16.6701 168.523 16.6701C170.54 16.6701 172.175 15.0351 172.175 13.0182Z" fill="url(#paint1_linear_379_803)"/>
<path d="M169.968 20.9164H166.893V36.2908H169.968V20.9164Z" fill="#2C2C2C"/>
<path d="M173.451 36.3199H177.208L187.971 20.9454H184.383L173.451 36.3199Z" fill="#2C2C2C"/>
<path d="M173.497 20.9561L177.208 20.9454L188 36.3072L184.212 36.3072L173.497 20.9561Z" fill="#2C2C2C"/>
<defs>
<linearGradient id="paint0_linear_379_803" x1="47.4707" y1="47.4707" x2="-13.8119" y2="41.352" gradientUnits="userSpaceOnUse">
<stop stop-color="#83A4D4"/>
<stop offset="1" stop-color="#B6FBFF"/>
</linearGradient>
<linearGradient id="paint1_linear_379_803" x1="172.175" y1="16.6701" x2="162.746" y2="15.7287" gradientUnits="userSpaceOnUse">
<stop stop-color="#83A4D4"/>
<stop offset="1" stop-color="#B6FBFF"/>
</linearGradient>
</defs>
</svg>
